<svg width="17" height="16" viewBox="0 0 17 16" fill="none" xmlns="http://www.w3.org/2000/svg">
<path d="M13.3983 15.0591L12.6721 15.7442C12.5991 15.813 12.5074 15.8595 12.4053 15.8797C12.3032 15.8998 12.1941 15.8928 12.0878 15.8593C11.9815 15.8259 11.8815 15.767 11.7969 15.6881C11.7123 15.6092 11.6459 15.5128 11.6036 15.4077L9.13843 9.27157L6.43427 11.6946L6.74122 13.9491C6.80882 14.3886 6.77427 14.6455 6.40055 14.998L5.91171 15.4591C5.83702 15.535 5.74253 15.5888 5.63623 15.616C5.52994 15.6431 5.41498 15.6429 5.30109 15.6152C5.14085 15.5754 4.9155 15.4644 4.74729 15.1614L3.17986 12.4166C3.16822 12.3961 3.15739 12.3748 3.14741 12.3533C3.14621 12.3515 3.1447 12.3498 3.14296 12.3485C3.1219 12.3375 3.10131 12.3254 3.08129 12.3121L0.418618 10.5737C0.134016 10.3895 0.0401628 10.1616 0.0116069 10.0024C-0.00759816 9.89539 -0.00203551 9.78892 0.0278481 9.69151C0.0577317 9.5941 0.111102 9.50847 0.183668 9.4415L0.699787 8.95464C0.978851 8.6914 1.38601 8.58035 1.76534 8.6633L3.9569 9.09728L6.56893 6.54766L0.594886 3.73631C0.492433 3.68809 0.400045 3.6162 0.326168 3.52723C0.252291 3.43826 0.199282 3.33504 0.171987 3.22701C0.144691 3.11898 0.14398 3.00959 0.16992 2.90883C0.195859 2.80807 0.24762 2.71917 0.320471 2.65024L1.05455 1.95777C1.1592 1.86354 1.28716 1.79758 1.42891 1.76478C1.57067 1.73198 1.72258 1.73318 1.87337 1.76831L9.79772 3.33476L11.3285 1.80034C11.4371 1.68426 11.7544 1.38015 11.8283 1.31042C13.3366 -0.110624 14.7695 -0.395125 15.662 0.551036C15.9429 0.848797 16.3606 1.49815 16.0021 2.5002C15.7908 3.09212 15.3465 3.70985 14.682 4.33669C14.6089 4.40566 14.2876 4.70395 14.1638 4.80711L12.5424 6.24495L13.6358 14.2551C13.6617 14.4073 13.6537 14.5586 13.6126 14.6978C13.5715 14.837 13.4983 14.9605 13.3983 15.0591Z" fill="#2971E6"/>
</svg>
