<svg width="268" height="208" viewBox="0 0 268 208" fill="none" xmlns="http://www.w3.org/2000/svg">
<path d="M364.85 72.3306C345.49 120.419 286.234 190.044 192.38 130.621C165.554 113.637 144.153 86.5189 140.833 54.9422C140.349 50.3419 140.314 46.0616 140.857 42.3061C148.685 -11.8107 226.601 85.02 205.642 135.524C183.108 189.823 120.063 222.488 14.9974 158.541" stroke="#FFD0B0" stroke-width="2" stroke-dasharray="9 9"/>
<path d="M27.098 153.42L27.966 154.317C28.0532 154.407 28.1164 154.517 28.1498 154.638C28.1833 154.759 28.1859 154.886 28.1574 155.009C28.129 155.131 28.0704 155.244 27.987 155.337C27.9036 155.431 27.798 155.502 27.68 155.544L20.7879 158.012L23.8715 161.342L26.4629 161.136C26.9672 161.087 27.2693 161.144 27.716 161.606L28.3003 162.209C28.3959 162.302 28.4678 162.416 28.5098 162.542C28.5519 162.669 28.5629 162.803 28.5419 162.934C28.5114 163.119 28.4045 163.375 28.0689 163.552L25.0317 165.199C25.0089 165.212 24.9852 165.223 24.9612 165.233C24.9592 165.234 24.9575 165.236 24.9561 165.238C24.9454 165.262 24.9333 165.285 24.9199 165.308L23.1607 168.306C22.9746 168.626 22.7188 168.721 22.5364 168.743C22.4139 168.758 22.2896 168.745 22.1734 168.703C22.0572 168.661 21.9524 168.593 21.8673 168.504L21.2504 167.866C20.9168 167.522 20.7476 167.038 20.8067 166.6L21.0955 164.064L17.8736 160.834L15.193 167.634C15.147 167.751 15.0725 167.854 14.9764 167.935C14.8802 168.015 14.7654 168.07 14.6425 168.095C14.5195 168.119 14.3924 168.113 14.2727 168.075C14.153 168.038 14.0445 167.972 13.9572 167.882L13.0797 166.975C12.9598 166.847 12.8705 166.692 12.8184 166.524C12.7663 166.356 12.7528 166.178 12.7788 166.004L13.8198 156.837L11.8848 154.941C11.7392 154.806 11.3543 154.414 11.2659 154.323C9.46505 152.461 8.99313 150.765 10.0054 149.784C10.324 149.476 11.0379 149.031 12.2383 149.519C12.9474 149.807 13.7094 150.368 14.5038 151.189C14.5912 151.279 14.9696 151.675 15.1018 151.827L16.9334 153.823L26.1396 153.088C26.3141 153.068 26.4908 153.087 26.6567 153.145C26.8225 153.203 26.9733 153.297 27.098 153.42Z" fill="#FF6600"/>
</svg>
